<?xml version="1.0" encoding="utf-8"?>
<!-- Generator: Adobe Illustrator 22.1.0, SVG Export Plug-In . SVG Version: 6.00 Build 0)  -->
<svg version="1.1" id="Lager_1" xmlns="http://www.w3.org/2000/svg" xmlns:xlink="http://www.w3.org/1999/xlink" x="0px" y="0px"
	 viewBox="0 0 418 398" style="enable-background:new 0 0 418 398;" xml:space="preserve">
<style type="text/css">
	.st0{fill:#000;}
</style>
<path class="st0" d="M411.9,386.1c-6.8-9-19-11.9-22.6-23.2c-1.3-4.2,0.3-8.7-1.6-12.9c-2.3-4.8-6.8-7.4-10-12.2
	c-5.2-7.1-0.3-14.2,2.3-21c0.6-2.5-6.7-15.1-7.2-14.2c0-1-0.2-1.9-0.4-2.9c-7.8-4.8-6.5-6.9-9.3-10.2c-1.8-1.3-4.1-1.8-5.7-3.3
	c-1.8-2.2-1.3-5.5-3.3-7.6c-2-1.9-5.1-1.8-7.1-3.6c-0.6-0.7-0.8-1.7-1.5-2.4c-0.9-0.8-1.9-1.4-2.8-2.1c0-0.2,1.6-58.1,1.6-58.1
	c-1.6-5.1-6.9-24.9-8.5-30c-11.1,36.4-9.1,30.3-9.2,38.1c-2.6,0.2-5.1,0.5-7.7,0.7c0.1-5.8,0.6-77,0.6-79.1c0.6-2.5,1.2-5,1.3-7.6
	c-0.3,0-0.9-0.1-1.2-0.2c-0.9-3.4-12.8-48.4-13.8-51.9c-0.6,1.8-13.8,50.6-13.9,51.9c-0.5,0-1.1,0.1-1.6,0.1
	c0.6,3.1,1.9,6.2,1.7,9.4c0,30.6,0.3,20.1-1.4,27.4c-6.1,18.4-4.6,14-4.8,24.7c-8.3-5.5-5.6-2.7-11.3-22.9
	c-3.6,16.5-2.4,17.4-11.5,24.4c-0.6-20.5,1.7-5.6-11.7-52.7c-12.4,47.6-8.7,34.6-8.8,77.7c-0.1,4.1,0.3,8.2,0.1,12.3
	c-7.4,19.9-6.2,8-6.1,35.9c-6.6,0.4-6.7,2.6-10.7,3.6c-1.9,0.4-2.9,2.4-4.9,2.8c-2,0.6-4.4,0.5-6,2c-2.2,2.9-3.4,6.3-4.3,9.7
	c-0.8,1-1.6,2-2.5,2.9c-1.6,1.5-4.2,1-5.7,2.6c-12.7,12.7-4.7,13.5-19.3,15.9c-9.4,1.2-22.6,10.2-24.3,12.8
	c-1.9,3.2-3.2,6.7-5.8,9.5c-2.1,0.9-4.1,2-6.3,2.9c-1.5,0-3,0.2-4.4,0.4c-2.7,2.2-5.3,7.9-6.9,11.8c-1.7,5.4-0.9,12.1-9.1,14.9
	c-2.8,0.9-5.8,7.1-7.5,10.3c-0.4-0.1-0.8-0.1-1.2-0.1c-0.2,0.5-0.3,1.1-0.5,1.5c-1,2.3-4.8,2.6-5.2,4.5c-2.5,8-7.5,13-12.2,19.3
	h312.8C412.9,389.8,414.9,390.1,411.9,386.1L411.9,386.1z"/>
<path class="st0" d="M67.2,66.4c7.2-3.6,10.2-3.3,15.2-1.4c-0.1,1.5,0.5,2.9,1.2,4.1c-0.2,0.7-0.3,1.5-0.5,2.2
	c0.8-0.2,1.5-0.4,2.3-0.5c1,0.5,1.8,1.2,2.9,1.3c1.2,0.2,1.6,1.5,2.1,2.4c0.4-4.7-0.3-0.9,1.6-5.7c0.9-0.1,1.6,0.6,2.2,1.1
	c4.5,4.5,5.3,13.8,5.9,18.2c2.4,3.3,5.2,6.5,7,10.3c1.7-3.1,3.5-6.2,5.3-9.3c-0.6-1.7-5-9.7-0.8-14.3c-3.9-1.4-6.2-5.2-7.5-9
	c-0.2-1.1-1.3-1.4-2.1-2c-10.1-6.8-10.8-16-11.3-18.7c-3,6.5-7.8,5.5-10.3,5.3c-2.4,4.3-5,4-7.8,1.6c-2.4,2.3-3.2,2.2-6.5,2l0.1-0.1
	l-9.9-0.8L59,61l0,0C60.5,61.7,66,64.1,67.2,66.4L67.2,66.4z M89.1,69.6c0.1,0.4,0.1,0.8,0.1,1.3c-0.5-0.1-0.9-0.3-1.4-0.4
	c0-0.5,0-0.9,0-1.4C88.2,69.2,88.8,69.2,89.1,69.6z M85.2,67.5c0.5,0.1,1,0.1,1.3,0.5c0.1,0.4,0.1,0.8,0.1,1.2c-0.2,0-0.7,0.1-1,0.1
	C85.3,68.7,85.1,68.1,85.2,67.5L85.2,67.5z"/>
<path class="st0" d="M189.5,21.4c-0.4-0.2-1.4-0.6-0.6-1c0.2,0.2,0.6,0.5,0.8,0.7c4.8,1.1,9.7,2,14.5,2.9
	c2.6,6.7,7.3,14.2,14.5,14.1c-2.7,5.7,0.4,13.1,3.2,17.3c-2.3,11.8,0.4,23.3,9.1,32.5c-7.5-1.9-12.5,0.8-15.1,6.1
	c-2.4-0.2-5.2-0.7-7.2,0.9c-1.8,1.4-2.2,3.9-2,6c-6-0.1-9.4,5.2-10.1,11.1c-4.8-1.4-10.6-3.3-14.2,0.6c1.6-4.1,5.9-15.4,4-19.3
	c7.4-2.7,14.4-7.5,15.6-15.2c-1.8-0.9-2.5-2.9-3.1-4.7c-0.9-0.6-1.9-1-2.9-1.5c0.9-0.8,1.9-1.4,2.9-2.2c0-1.6,0.2-3.4,1.4-4.6
	c0.2-1.5-0.4-2.8-0.9-4.2c0.9,0.8,1.7,1.6,2.6,2.4c1.8,0.1,3.5,0.8,5.1,1.4c4.7-9.1-13.1-25.5-13.4-27.4
	C192.4,31.9,191.3,26.6,189.5,21.4 M201.4,66.2c-0.1,0.6-0.4,1.2,0,1.7c0.2,0.7,1.1,0.5,1.6,0.5c0.2-1,0.1-2-0.7-2.6
	C202,66,201.7,66.1,201.4,66.2 M200.9,70.2c-0.3,0.8-0.3,1.6,0,2.4c0.5,0,1,0,1.5,0c0-0.8,0.3-1.7-0.4-2.2
	C201.6,70.3,201.2,70.3,200.9,70.2z"/>
<path class="st0" d="M142.8,48.4c0.6-0.9,1.3-1.6,2.1-2.4c0.4,1.5,1.6,2.9,1.4,4.5c-0.1,1.7-0.2,3.6,1,5c0.8,0.2,0.9-1,1.2-1.4
	c0,0.2,0.1,0.5,0.2,0.7c0.5,0.3,1,0.6,1.6,0.8c0.1,0.7,0.2,1.4,0.3,2.1c1.4,0.6,2.9,0.6,4.4,0.3c0.9,1,1.9,1.9,3.1,2.5
	c-1,0.3-1.7,1.1-2.3,1.8c-0.6-0.4-1.3-0.7-2-0.9c-0.8,0.6-1.6,0.2-2.3-0.3c-2.9,1.7-1.8-0.6-4.7,1.7c0.2-2.5-1-4.9-2.8-6.6
	c-0.2-1.3-0.7-2.5-1.6-3.4C143.4,51.5,142.9,49.9,142.8,48.4L142.8,48.4z"/>
<path class="st0" d="M75.7,122.4c5.3,3.3,16.7,9.5,22.5,9.2c0.2-0.2,0.5-0.3,0.7-0.5c2.9,13.2,6.9,17.2,12.7,21
	c1.1,0.7,2.2,1.4,3.4,1.6c1.5-2,4.1-2.6,6.4-2.8c0.9-1.1,1.7-2.2,2.5-3.4c0.7,1.3,1.4,2.7,2.1,4c5.5,1.4,3.9,1.7,6,2.9
	c1.7,0.4,3.4-0.1,5.1-0.4c-1.2,1-2.4,1.9-3.6,2.9c-0.6,2-1.2,4-2.7,5.5c0,0.1-0.1,0.4-0.1,0.5c10.4,7.1,34.5-10.6,36-11.3
	c8.6-0.7,19.6-0.7,22.9-3c-1.9,2.5-6.7,16.7-7.4,18.7c-8.7,2.1-19.7,6.4-20.6,15.4c-6.2-4.2-15.1-2.5-22,0.4
	c-1.6,0.7-20.2-9.8-42.8,5.1c1.6-3.3,2.3-7,1.9-10.6c0,0.2-0.1,0.4-0.1,0.6c-0.4-4.1-3.1-7.6-6.3-10.1c0.2-1.3,3.1-8.3-1.8-11.3
	c-1.5-1-3.4-1.3-5.2-1.6c1.6-7.2-4.4-12.3-11.5-14.7c-0.5-0.1-0.1-0.7,0-1C76.6,134.2,79.5,127.1,75.7,122.4 M121.4,154.6
	c0.4,0.7,1,1.4,1.9,1.2c0.9,0.2,1.4-0.6,1.9-1.2c-0.5-0.6-1-1.3-1.9-1.2C122.4,153.3,121.9,154.1,121.4,154.6 M126.8,156.7
	c0.4,1.1,1.8,0.9,2.6,0.7c0.3-0.3,0.6-0.8,0.9-1.1c-0.4-0.4-0.7-0.8-1.1-1.1c-0.5,0-1,0-1.6,0C127.4,155.6,126.5,156,126.8,156.7
	L126.8,156.7z"/>
<path class="st0" d="M46.5,145.6c2.1,0.3,4.2-0.5,6.1-1.2c-0.7,1.5-0.4,3.1,0,4.6c-2.6,0.8-3,0.9-3.8,3.3c-2.2,0.6-2.1,0.3-2.4,3.1
	c-1.3,1.2-2.7,1.8-2,5.1c-5.3-5-10.2-2.5-11.9-3.7c-1.4-0.9-3.1-1.1-4.8-0.8c-0.2-2.5-2.6-3.9-4.7-4.7c-0.4-1.7-0.7-3.4-1-5.1
	c4.4,1.6,5.4,1.1,6.5,2.3c2.2,2.1,4.9,4.3,8.1,4.1c-0.2-0.9-0.5-1.8-1-2.6c0.4,0,0.7,0,1.1,0.1c0.6-0.2,1.1-0.3,1.7-0.4
	c0.2-0.3,0.4-0.6,0.6-0.9c0.2,0.3,0.4,0.6,0.6,0.9c0.6,0.3,1.2,0.7,1.8,1.2C44.5,149.5,45,148.8,46.5,145.6 M38.7,150.5
	c0,0.6,0.9,0.6,0.9,0C39.6,149.9,38.6,149.9,38.7,150.5z"/>
<path class="st0" d="M224.4,151.6c0.7-0.8,1.4-1.7,2.1-2.5c0.4,1.2,1.2,2.3,1.5,3.6c0,2-0.2,4.2,0.9,6c0.1,0,0.4,0,0.5,0
	c0.2-0.4,0.5-0.7,0.7-1.1c0.6,0.4,1.2,0.8,1.9,1.2c0,0.6,0,1.3,0.1,1.9c1.4,0.9,3,0.6,4.5,0.5c0.9,0.9,1.9,1.8,3.1,2.4
	c-0.9,0.4-1.7,1-2.2,1.8c-1-0.7-2.1-1.2-3.3-0.6c-0.3-0.2-0.6-0.5-0.9-0.7c-3.4,1.6-1.7-0.3-4.9,1.5c-0.1-3.5-0.6-3.7-2.6-6.4
	c-0.4-1.2-0.7-2.5-1.8-3.4C224.9,154.7,224.8,153,224.4,151.6 M230.4,158.6C230.6,158.8,230.6,158.8,230.4,158.6 M231.1,159.3
	C231.2,159.5,231.2,159.5,231.1,159.3z"/>
<path class="st0" d="M217.4,209.5c2.5-0.6,5-1.4,7.4-2.3c-2.7,2.5-1.4,6.2-0.5,10c-4.2,0.4-7.5,2.5-8,6.9c-5.9-0.3-5.1,4.2-5.1,6.5
	c-2.3,1-4.1,3.1-4.7,5.5c-0.4,1.6-0.1,3.3,0.2,5c-5.4-5.5-13.3-8-20.9-7c-0.9,0.1-1.9,0.3-2.7-0.3c-3.3-1.9-7.5-3.6-11.3-1.9
	c0-5.3-5.1-8.3-9.9-10.4c-0.5-3.5-1.2-7-1.9-10.5c3.6,1.5,7.5,2.3,11.3,3.2c0.8,0.2,1.4,0.9,2,1.4c3.1,3.1,6.6,6,10.6,7.8
	c2.1,0.9,4.5,1.6,6.7,0.8c-1.8-4.3,0.4-1.8-2.6-5.5c0.9,0.3,1.8,0.5,2.7,0.7c1-0.8,2.2-1.1,3.5-1.1c0.5-0.7,1.1-1.3,1.6-2
	c0.3,0.7,0.6,1.3,0.9,2c1.4,0.5,2.8,1.1,3.5,2.4c4.6-1.4,7.9-3.5,10.8-10.8C213.2,210.5,215.3,209.9,217.4,209.5 M194.7,219.6
	c0,0.4-0.1,0.7-0.1,1.1c0.6,0.1,1.1,0.2,1.7,0.3c0-0.4,0-0.9,0-1.3C195.8,219.6,195.3,219.6,194.7,219.6 M191.8,219.9
	c0,0.4,0,0.9,0,1.3c0.5,0,1.1,0,1.6,0c0-0.3,0-0.7,0-1C192.9,220.1,192.3,220,191.8,219.9z"/>
<path class="st0" d="M55.8,213.1c2.2,0.6,6.8,2.7,9.9,0c-1.6,4-3.7,9.3-3.1,13.5c-7.4,2.6-9.6,5.9-11.1,10.3
	c1.2,0.9,1.9,2.1,2.2,3.5c0.7,0.4,1.3,0.8,2,1.2c-0.7,0.5-1.4,0.9-1.9,1.5c-1.6,5.9-1.4,2.2-0.7,6.1c-2.1-1.8-0.3-1.1-5.5-2.6
	c-1.9,8.4,8.9,17.6,9.3,19.3c0.9,4,1.3,8.3,3.2,12.1l-0.4-0.5c-3.5-0.6-6.9-1.6-10.3-2.2c-2.2-4.8-4.6-10-10.1-10.3
	c2.2-5-1.1-10.2-1.9-12.1c-0.2-1.5,3.1-13.5-6.2-23.1c4.7,1.2,8.5,0.1,10.7-4.1c4.1,0.2,6.7,0.2,6.6-4.8
	C53.1,220.7,54.8,217.6,55.8,213.1 M51,240.9c0,0.5,0,1,0,1.5c0.4,0,0.8,0.1,1.2,0.1c0-0.6,0-1.1,0-1.7
	C51.8,240.9,51.4,240.9,51,240.9 M50.6,243.6c0,0.6-0.1,1.2,0,1.8c0.4,0,0.8,0,1.2,0c0-0.4,0.1-0.7,0.1-1.1
	C51.5,244,51.1,243.8,50.6,243.6L50.6,243.6z"/>
<path class="st0" d="M131.7,234.5c2.1,0.2,4.1-0.5,6-1.2c-0.3,1.5-0.2,3.1,0.2,4.5c-3.1,0.7-3.3,1.5-3.9,3.3
	c-2.6,0.3-2.3,1.2-2.3,3.1c-2.5,1.7-2.3,2.6-2.2,4.9c-2.8-2.8-6.9-3.8-10.8-3.1c-1.7-1-3.7-1.9-5.7-1.2c-0.3-2.5-2.7-4-4.8-4.9
	c-0.3-1.7-0.5-3.3-0.9-4.9c8.1,2.5,3.6,0.1,8,3.6c1.8,1.5,4.1,3,6.6,2.7c-0.2-0.9-0.4-1.9-1.1-2.6c1,0.2,2-0.1,2.9-0.4
	c0.2-0.2,0.4-0.5,0.6-0.7c0.6,0.8,1.4,1.3,2.2,1.9C129.2,239,130.9,236.7,131.7,234.5 M122.6,239.3c-0.2,0.5,0,0.7,0.5,0.5
	C123.3,239.3,123.2,239.1,122.6,239.3 M124,239.1c-0.4,0.5,0.5,0.9,0.8,0.5C125.1,239.1,124.3,238.6,124,239.1z"/>
</svg>
