<?xml version="1.0" encoding="utf-8"?>
<!-- Generator: Adobe Illustrator 22.1.0, SVG Export Plug-In . SVG Version: 6.00 Build 0)  -->
<svg version="1.1" id="Lager_1" xmlns="http://www.w3.org/2000/svg" xmlns:xlink="http://www.w3.org/1999/xlink" x="0px" y="0px"
	 viewBox="0 0 230 310" style="enable-background:new 0 0 230 310;" xml:space="preserve">
<style type="text/css">
	.st0{fill:#E6E7E8;}
	.st1{fill:#A6A8AB;}
	.st2{fill:#BBBDBF;}
	.st3{opacity:0.33;fill:#007373;enable-background:new    ;}
	.st4{display:none;fill:#043450;}
	.st5{fill:#D0D2D3;}
	.st6{display:none;opacity:0.33;fill:#007373;enable-background:new    ;}
	.st7{fill:#929497;}
	.st8{fill:#E4E4E5;}
	.st9{fill:#043450;}
	.st10{fill:#F1F1F2;}
</style>
<g id="left_arm_2_">
	<path class="st0" d="M140.7,145.2L140.7,145.2c1.7,0.6,3.6,1,5.5,1c5.5,0.1,17.1,0.3,17.1,0c0.1-0.4,15.6,0.3,17.1-1.3
		c1.5-1.7,3.6-3,2-5.7c-1.7-2.8-7.9-2.7-7.9-2.7l-11.9,0.8c-3.9,0.2-7.8,0-11.7-0.7c-3.6-0.7-8-1.2-9.4,0c-2.6,2.1-3.1,3.6-2.9,5.1
		C139,144.5,140.7,145.2,140.7,145.2z"/>
	<path class="st0" d="M190.3,139.7L190.3,139.7c1.2-0.7,2.2-1.7,3.1-2.8c2.5-3.2,7.9-10,7.7-10.1c-0.2-0.2,7.2-9.1,7-10.7
		c-0.2-1.7-0.2-3.5-2.4-3.9c-2.4-0.4-5.1,3.4-5.1,3.4l-4.9,7.4c-1.6,2.4-3.6,4.7-5.7,6.6c-2,1.8-4.3,4.1-4.3,5.6
		c0,2.6,0.7,3.6,1.7,4.2C189.2,140.4,190.3,139.7,190.3,139.7z"/>
	<path class="st1" d="M222.7,97.9c-0.8-0.2-1.7,0.2-2.3,0.8c-2.3,1.9-3.8,4.6-5.8,6.6c-0.1-0.1-0.2-0.2-0.2-0.2
		c2.1-2.3,4.2-4.7,5.9-7.3c0.6-0.9,1.1-1.9,0.8-2.9c-0.4-0.9-1.6-1.3-2.5-1.2c-0.9,0.2-1.8,0.9-2.4,1.7c-2,2.3-3,5.2-4.7,7.6
		c-0.2-0.1-0.2-0.2-0.2-0.2c-0.1,0-0.1,0-0.2-0.1c1.2-2.3,2.3-4.6,3.1-7c0.2-0.8,0.5-1.6,0.4-2.4c-0.2-0.8-0.7-1.6-1.5-1.7
		c-0.9-0.2-1.8,0.6-2.4,1.3c-2.4,2.8-3.4,6.6-4.3,10v-0.1c-0.2,0.2-0.6,0.2-0.5,0.3c0.2,0.9,1,1.7,1.7,2.3c2.1,1.7,4,3.6,6.4,4.9
		c1.2,0.6,0.7,0.5,1.7,0.8c0.1,0,0.2-0.1,0.2-0.2c0.2-0.2,0.4-0.3,0.6-0.5c2.8-2.4,5.1-5.2,6.9-8.5c0.4-0.7,0.7-1.4,0.8-2.2
		C223.9,99.1,223.5,98.2,222.7,97.9z"/>
	<ellipse class="st2" cx="208.7" cy="109.4" rx="7.1" ry="6.9"/>
	<ellipse class="st2" cx="184.7" cy="139.6" rx="4.7" ry="4.6"/>
	<path class="st3" d="M217.4,107.3c-1.4-1.7,0.3-4.2,1.3-5.5c0.9-1.2,1.7-2.6,2.8-3.6c-0.4,0.2-0.7,0.4-1,0.6
		c-2.3,1.9-3.8,4.6-5.8,6.6c-0.1-0.1-0.2-0.2-0.2-0.2c0.6-0.6,1.1-1.2,1.6-1.8c-0.3,0.2-0.6,0.5-1,0.7c-0.3,0.2-0.6,0.1-0.7-0.1
		c-0.2-0.1-0.5-0.4-0.6-1c-0.3-1.4,0.9-3.1,1.6-4.1c0.5-0.7,2.4-3.6,4.3-5c-0.3-0.1-0.6-0.1-0.9,0c-0.9,0.2-1.8,0.9-2.4,1.7
		c-2,2.3-3,5.2-4.7,7.6c-0.2-0.1-0.2-0.2-0.2-0.2c-0.1,0-0.1,0-0.2-0.1c0.1-0.2,0.2-0.3,0.2-0.5c-0.4,0.4-0.9,0.6-1.3,0.1
		c-0.2-0.1-0.2-0.2-0.3-0.3c-0.9-2.5,0.5-5.9,2.1-7.9c0.3-0.4,1.3-1.6,2.1-2c-0.2-0.2-0.6-0.4-0.9-0.5c-0.9-0.2-1.8,0.6-2.4,1.3
		c-2.4,2.8-3.4,6.6-4.3,10V103c-0.1,0.1-0.2,0.1-0.3,0.2c-2.6,1-4.3,3.5-4.3,6.3c0,1.4,0.5,2.8,1.3,4c-0.1,0.1-0.1,0.1-0.2,0.2
		c-1.2,0.9-2.1,2.1-2.1,2.1l-4.9,7.4c-1.6,2.4-3.6,4.7-5.7,6.6c-2,1.7-4.2,4.1-4.3,5.5c-0.4-0.1-0.7-0.2-1.1-0.2
		c-1.9,0-3.5,1.1-4.3,2.6c-2.4-1.1-5.9-1-5.9-1l-11.9,0.8c-3.9,0.2-7.8,0-11.7-0.7c-3.6-0.7-8-1.2-9.4,0c-2.6,2.1-3.1,3.6-2.9,5.1
		c0.4,2.8,2.1,3.5,2.1,3.5c1.7,0.6,3.6,1,5.5,1c1.8,0,4.3,0.1,6.9,0.1c-0.6-0.6-1-1.3-1.6-1.9c-0.6-0.7-1.3-1.5-1.7-2.3
		c-0.2-0.3-0.1-0.9,0.4-0.9c3.6-0.6,7.2-0.4,10.9-0.3c3.7,0,7.3-0.7,11-0.8c2.4-0.1,8.8,0.9,8.8,4.3c0.4-0.4,0.7-0.7,1-1.1
		c0.8,0.6,1.7,0.9,2.7,0.9c1,0,2.1-0.3,2.8-0.9c-0.5,0.1-1,0-1.5-0.1c-5.3,0.5-3.9-7.9,1.2-6.9c1-0.7,1.2-1.3,2-2.3
		c1-1.4,2.3-2.7,3.5-4c2.1-2.4,4.2-4.8,6.2-7.3c0-0.1,0.1-0.1,0.1-0.2c0.2-0.5,0.5-1,0.8-1.5c0.9-1.7,1.7-3.8,3.1-5.1
		c0.6-0.5,1.3-0.7,2-0.9c1.1,0.8,2.5,1.2,4,1.2c0.9,0,1.8-0.2,2.6-0.5c-2.6,0.3-5.6-1.2-6.5-3.6c-1.3-3.5,2.2-6.9,5.5-7.1
		c3.2-0.3,5.7,2.8,5.6,5.8c0.2-0.2,0.3-0.2,0.5-0.4c1.1-0.9,2.2-2.1,3.2-3.2C218.7,107.9,218,108,217.4,107.3z"/>
</g>
<g id="tqlo_2_">
	<path class="st4" d="M95.1,139c-1,1-2.2,2-3.4,2.8c-1.3,0.9-3.3,2.5-5.7,5.3c-2.3,2.7-4.8,6.3-7.2,11.4
		c-6.3,13.5-5.5,19.3-3.6,31.6c1.3,8.3,7.6,20,13.8,24.9c5.3,4,12.2,7.7,19,8.4c5,0.5,11,0.5,18.5-0.9c15.7-2.9,21.3-12.2,22.1-13.1
		s10.6-13,11-30.3c0.2-11.4-3.6-21.7-6.2-27.5c-1.3-2.8-3-5.4-5.1-7.7l-6.5-7.1c-1.6-1.7-3.4-3.3-5.5-4.7l0,0
		c-11.7-7.8-27.3-6.5-37.4,3.2L95.1,139z"/>
	<path class="st5" d="M158.9,169c-0.9,0.6-2.2,0.7-3.2,0.9c-2.4,0.6-5,1.3-7.4,1.8c-6.2,1.4-12.5,2.2-18.8,2.2
		c-0.2,0-0.4-0.2-0.5-0.3c-0.4-1.3-1.1-4-1.1-4c-0.2-0.3,0-0.7,0.4-0.7c5,0,10.2-0.7,15.2-1.7c4.8-0.9,9.7-1.7,14.4-3.3
		c-0.9-3.8-2.1-7.1-3.2-9.9c-4.5,1.2-9.1,2.1-13.7,3c-4.7,0.9-9.7,1.5-14.6,1.4c-0.2,0-0.4-0.2-0.5-0.3c-0.2-1.1-0.2-2.2-0.4-3.3
		c-0.1-0.4,0.2-0.6,0.5-0.6c0.1-0.1,0.2-0.1,0.2-0.1c8.7-0.6,17.5-2.7,25.9-5.2h0.1c-1.1-1.9-2.4-3.6-3.8-5.2l-6.5-7.1
		c-1.6-1.7-3.4-3.3-5.5-4.7l0,0c-11.7-7.8-27.3-6.5-37.4,3.2l-4,3.9c-1,1-2.2,2-3.4,2.8c-1.3,0.9-3.3,2.5-5.7,5.3
		c-2,2.3-4.1,5.3-6.1,9.2c3.6,0,7.3-0.2,10.9-0.1c3.9,0.1,7.8-0.2,11.7-0.1c0.2,0,0.5,0.2,0.5,0.5c0,1.2,0.1,2.3,0.3,3.5
		c0.1,0.3-0.2,0.6-0.5,0.6c-4.4,0.2-8.8,0.3-13.4,0.6c-4,0.2-7.9,0-11.9-0.2c-1.6,3.7-2.6,6.8-3.2,9.7c4.1,0.4,8.2,0.6,12.3,0.5
		c0.2,0,0.5,0,0.7,0h0.1c2.4-0.1,4.7-0.2,7-0.5c0.6-0.1,1.1-0.1,1.7-0.1c1-0.3,4.7-0.4,5.5-0.6c0.3-0.1,0.6,0.2,0.6,0.5
		c0,0.1,0,0.1,0,0.2c0.1,0.4,0.4,3.2,0.6,4.1c0.1,0.3-0.2,0.6-0.5,0.6c-9.6,0.8-19.1,0.9-28.8,0.9c-0.1,3.6,0.4,7.1,1,11.5
		c0.2,0,0.4,0.1,0.6,0.1c1.5,0.2,2.9,0.3,4.4,0.3c2.7,0.1,5.5-0.1,8.1-0.1c5.5-0.2,11.1-1.2,16.6-1c0.2,0,0.5,0.2,0.5,0.5
		c0.4,5,2.4,9.6,3.2,14.4c0.1,0.2-0.1,0.5-0.3,0.6c-8.6,2.9-17.9,1.3-26.9,2.8c2.4,4,5.1,7.4,7.9,9.6c5.3,4,12.2,7.7,19,8.4
		c5,0.5,11,0.5,18.5-0.9c15.7-2.9,21.3-12.2,22.1-13.1c0.5-0.6,4-4.9,7-11.9c-7,1.8-14.1,4-21.3,4.5c-2.1,0.2-2.6-0.2-2.8-2.3
		c-0.5-4.1-1.5-8.2-1.7-12.4c0-0.3,6-1.1,8.3-1.5c2.2-0.4,6.7-1.3,6.7-1.3c0.6-0.2,1.3-0.4,1.9-0.6c2.2-0.6,4.3-1.1,6.6-1.6
		c2-0.5,6.2-2.4,6.3-2.4c0-0.3,0-0.6,0-0.9C159.8,175.4,159.5,172.1,158.9,169z"/>
	<path class="st3" d="M86.8,171.3c0.2,0,0.5,0,0.7,0h0.1c2.4-0.1,4.7-0.2,7-0.5c0.6-0.1,1.1-0.1,1.7-0.1c0.3-0.1,0.8-0.2,1.4-0.2
		c-1.1-0.2-2.1-0.8-2.9-2.3c-1.3-2.8-0.8-5.8,2.1-7c0.3-0.2,0.6-0.2,1-0.3c-2.8,0.2-5.7,0.2-8.5,0.5c-4,0.2-7.9,0-11.9-0.2
		c-1.6,3.7-2.6,6.8-3.2,9.7C78.6,171.2,82.7,171.3,86.8,171.3z"/>
	<path class="st3" d="M136.5,132L136.5,132c-11.7-7.8-27.3-6.5-37.4,3.2l-4,3.9c-1,1-2.2,2-3.4,2.8c-1.3,0.9-3.3,2.5-5.7,5.3
		c-2,2.3-4.1,5.3-6.1,9.2c3.6,0,7.3-0.2,10.9-0.1c3.9,0.1,7.8-0.2,11.7-0.1c0.2,0,0.5,0.2,0.5,0.5c0,1.2,0.1,2.3,0.3,3.5
		c0,0.2,0,0.4-0.2,0.5c0.1,0,0.2,0,0.2,0c0.5-0.1,0.9-0.4,1.5-0.8c-0.4-1.5-0.7-3-1.3-4.5c-0.8,0.2-1.5,0.5-2.1,0.6
		c-6.7,1.5-5.1-8.5-0.1-10c2.7-0.9,5.7-0.7,8.5-1.1c4-0.5,7.8-1.1,11.7-1.8c3.1-0.6,19.4-2.7,19.5-7.3
		C139.6,134.4,138.1,133.1,136.5,132z"/>
	<path class="st3" d="M102.7,175.5c0.6,0,1.2-0.1,1.7-0.2c-0.2-1.7-0.6-3.2-0.6-4.8c-0.2-0.1-0.3-0.1-0.6-0.1c-0.3,0-0.6,0-0.9,0
		c0.1,0.1,0.2,0.2,0.2,0.3c0,0.1,0,0.1,0,0.2c0.1,0.4,0.4,3.2,0.6,4.1C103.1,175.2,103,175.4,102.7,175.5z"/>
	<path class="st3" d="M88,188.2c3.2-0.1,6.5-0.5,9.8-0.7c-0.9-0.1-1.9-0.3-2.7-1c-2.5-2.1-1.6-7.6-0.8-10.3
		c-6.8,0.3-13.7,0.3-20.5,0.3c-0.1,3.6,0.4,7.1,1,11.5c0.2,0,0.4,0.1,0.6,0.1c1.5,0.2,2.9,0.3,4.4,0.3
		C82.6,188.3,85.4,188.2,88,188.2z"/>
	<path class="st3" d="M152.2,149L152.2,149c-0.4-0.8-0.9-1.6-1.4-2.3c-4.7,1.7-18.2,3.1-23.5,7.4C135.8,153.4,144.1,151.4,152.2,149
		z"/>
	<path class="st3" d="M151.6,163c-1.9,0.9-4,1.4-6,2c-3.2,0.8-6.6,1.3-9.9,2c-1.2,0.2-5,0.5-6.2,1.9c4.7-0.1,9.5-0.8,14-1.6
		c4.8-0.9,9.7-1.7,14.4-3.3c-0.3-1.3-0.6-2.5-1-3.7C155.1,160.7,152.7,162.4,151.6,163z"/>
	<path class="st3" d="M155.3,178.5c-3.5,1.3-7,2.4-10.5,3.4c-3.6,1.1-7.2,1.4-10.9,2.2c-1.3,0.3-1.9,0.4-2.8,1.6
		c-0.6,0.9-0.8,1-0.8,1.3c1.5-0.4,5.9-0.9,7.8-1.3c2.2-0.4,6.7-1.3,6.7-1.3c0.6-0.2,1.3-0.4,1.9-0.6c2.2-0.6,4.3-1.1,6.6-1.6
		c2-0.5,6.2-2.4,6.3-2.4c0-0.3,0-0.6,0-0.9c0-0.9,0-1.8,0-2.8C158.4,177.3,156.8,177.9,155.3,178.5z"/>
	<path class="st3" d="M139.1,215.7c-0.1,0-14.5,3.5-22.7,2.4c-6.2-0.8-16-2.2-19-8.9c-0.2-0.4-0.2-0.9,0.3-1.2
		c3.9-2,12.7-1.2,13.4-6.5c0.3-2.3-0.9-5.1-1.3-7.3c-0.5-2.4-0.3-6.2-2.9-7.3c-2-0.8-4.3,0-6.6,0.3c1.5-0.1,3-0.2,4.5-0.1
		c0.2,0,0.5,0.2,0.5,0.5c0.4,5,2.4,9.6,3.2,14.4c0.1,0.2-0.1,0.5-0.3,0.6c-8.6,2.9-17.9,1.3-26.9,2.8c2.4,4,5.1,7.4,7.9,9.6
		c5.3,4,12.2,7.7,19,8.4c5,0.5,11,0.5,18.5-0.9c10.3-1.9,16.2-6.6,19.3-9.8C144.7,213.4,140.5,215.5,139.1,215.7z"/>
	<path class="st6" d="M144.2,213.1c-1.7,1.1-4,2.8-5.8,3.7c-5.1,2.4-11.2,2.3-16.6,1.3c-5.7-1-11.9-3.2-16.1-7.3
		c-2.3-2.2-4.2-4.8-6.2-7.3c-1.8-2.2-3.5-4.6-4.3-7.4c0-0.1,0-0.2,0-0.2c-0.7-1.7-1.2-4-1.5-5.5c-1.1-4.3-1.7-8.7-1.7-13.2
		c0.2-8.5,2.8-16.7,5.5-24.6c0.2-1.3,0.6-2.4,1.2-3.6c0-0.1,0-0.2,0-0.2c0-0.3,0.2-0.6,0.6-0.6c8.4,1,17.5,0,25.4-2.7
		c3.9-1.3,8.2-2.6,11.7-4.8c1.5-0.9,2.8-2.2,4-3.6c0.2-0.3,0.6-0.7,0.9-1.1c-1.4-1.5-3-2.8-4.7-4l0,0c-11.7-7.8-27.3-6.5-37.4,3.2
		l-4,3.9c-1,1-2.2,2-3.4,2.8c-1.3,0.9-3.3,2.5-5.7,5.3c-2.3,2.7-4.8,6.3-7.2,11.4c-6.3,13.5-5.5,19.3-3.6,31.6
		c1.3,8.3,7.6,20,13.8,24.9c5.3,4,12.2,7.7,19,8.4c5,0.5,11,0.5,18.5-0.9c12.1-2.2,18.1-8.2,20.7-11.3c-0.6,0.3,0.6-4.2,0-3.8
		c-0.4,0.2-1.8,1.2-2.2,2.4C144.6,211,144.4,213,144.2,213.1z"/>
</g>
<g id="right_arm_2_">
	<path class="st3" d="M86.9,147.8c-0.2-0.3-0.6-0.6-0.9-0.9c-0.2,2.1-1.3,3.9-2.6,5.5c-0.9,1.3-2.1,2.6-3.3,3.9c2-0.6,4-1.3,5.7-2.4
		c0.9-0.9,1.5-1.7,1.6-2.4c0.1-0.9,0.2-1.6,0.2-2.2C87.4,148.7,87.2,148.3,86.9,147.8z"/>
	<path class="st0" d="M81.2,143.7L81.2,143.7c-1.7,0.7-3.3,1.7-4.7,3c-4.1,3.7-12.6,11.5-12.5,11.8c0.2,0.3-11.5,10.4-11.5,12.7
		c0,2.3-0.5,4.6,2.4,5.5c3.2,0.9,7.6-3.5,7.6-3.5l8.1-8.7c2.7-2.8,5.7-5.4,8.9-7.5c3.1-2,6.6-4.6,6.9-6.5c0.5-3.4-0.2-4.7-1.4-5.8
		C82.9,143.1,81.2,143.7,81.2,143.7z"/>
	<ellipse class="st2" cx="53.3" cy="177.3" rx="4.7" ry="4.6"/>
	<path class="st0" d="M50.4,182.3L50.4,182.3c0.2,1.5,0.7,3,1.4,4.3c2.1,4,6.7,12.4,7,12.3c0.3-0.1,6.1,11.4,7.9,11.9
		c1.8,0.5,3.6,1.4,5-0.7c1.4-2.3-1.2-6.7-1.2-6.7l-5.4-8.3c-1.7-2.7-3.2-5.6-4.2-8.7c-0.9-2.8-2.4-6.2-3.8-6.8c-2.6-1.1-4-0.9-5-0.2
		C50.3,180.8,50.4,182.3,50.4,182.3z"/>
	<path class="st7" d="M71.3,222.1c0.1-0.6,0.2-1.2,0.2-1.8h-0.1c0,0,0.1,0,0.1-0.1c0,0,0,0,0-0.1c-1.3,0.6-2.8,0.2-4-0.5
		c-1.3-0.8-2.2-2.1-3-3.3c-1.1-1.8-1.7-3.5-2.4-5.5c-0.8-0.2-1.7-0.1-2.4,0.2c0.5-0.4,0.9-0.8,1.1-1.3c0.2-0.5,0.3-1.2,0-1.7
		c-0.4-0.6-1.1-0.7-1.7-0.6c-0.6,0.2-1.2,0.6-1.7,1c-0.9,0.9-1.7,2-2.2,3.2c-0.3,0.6-0.5,1.4-0.2,2.1c0.4,0.9,1.6,1.3,2.6,1.3
		c1,0,2.1-0.2,3.2,0.1l-2.8,1.3c0.2-0.5-0.2-0.9-0.7-1c-0.5-0.1-0.9,0.1-1.3,0.3c-1.1,0.8-1.3,2.5-0.7,3.7c0.6,1.2,2.1,1.9,3.5,1.8
		c0.5,0,0.9-0.2,1.3-0.3c0,0,0,0-0.1,0.1c-0.6,0.8-0.7,1.9-0.2,2.6c0.6,0.8,1.8,0.9,2.8,0.6c1.3-0.3,2.7-0.9,3.7-1.9
		c-0.2,0.3-0.2,0.7,0,1c0.3,0.6,1,1,1.7,1c0.7,0,1.4-0.4,2-0.9C70.5,223.4,71,222.8,71.3,222.1z"/>
	<ellipse class="st2" cx="67.3" cy="215" rx="6.8" ry="6.6"/>
	<path class="st3" d="M85,144.7c-2.1-1.7-3.9-1.1-3.9-1.1c-1.7,0.7-3.3,1.7-4.7,3c-4.1,3.7-12.6,11.5-12.5,11.8
		c0.2,0.3-11.5,10.4-11.5,12.7c0,0.6,0,1.1,0,1.7c-2.2,0.4-4,2.3-4,4.5c0,1.6,0.9,3,2.1,3.9c-0.2,0.6-0.2,1.1-0.2,1.1
		c0.2,1.5,0.7,3,1.4,4.3c2.1,4,6.7,12.4,7,12.3c0.2-0.1,3.6,6.5,6,9.9c-0.9,0.3-1.7,0.9-2.4,1.6c-0.2,0.2-0.3,0.3-0.5,0.5
		c-0.7-0.1-1.5-0.1-2.2,0.2c0.5-0.4,0.9-0.8,1.1-1.3c0.2-0.5,0.3-1.2,0-1.7c-0.4-0.6-1.1-0.7-1.7-0.6c-0.6,0.2-1.2,0.6-1.7,1
		c-0.9,0.9-1.7,2-2.2,3.2c-0.3,0.6-0.5,1.4-0.2,2.1c0.4,0.9,1.6,1.3,2.6,1.3c1,0,2.1-0.2,3.2,0.1l-2.8,1.3c0.2-0.5-0.2-0.9-0.7-1
		c-0.5-0.1-0.9,0.1-1.3,0.3c-1.1,0.8-1.3,2.5-0.7,3.7c0.6,1.2,2.1,1.9,3.5,1.8c0.5,0,0.9-0.2,1.3-0.3c0,0,0,0-0.1,0.1
		c-0.6,0.8-0.7,1.9-0.2,2.6c0.2,0.2,0.3,0.3,0.5,0.4c0.2-0.7,1.1-1.4,1.6-1.7c0.8-0.5,1.7-0.8,2.5-0.9c0.7-0.1,1.6,0,1.7,0.8
		c0,0.1,0,0.2,0,0.3c0.1,0,0.1-0.1,0.2-0.1c-0.2,0.3-0.2,0.7,0,1c0.3,0.6,1,1,1.7,1H68c-0.1-0.1-0.2-0.2-0.2-0.3
		c-0.2-0.6,0.2-1.3,0.6-1.8c0.4-0.5,0.9-0.9,1.4-1.3c0.4-0.3,0.9-0.8,1.4-0.6l0,0c0-0.2,0-0.3,0-0.4h-0.1c0,0,0.1,0,0.1-0.1
		c0,0,0,0,0-0.1c-0.1,0-0.1,0-0.2,0.1c0.7-0.5,1.3-1.1,1.8-1.8c-1,0.9-2.4,1.3-3.9,1.3c-0.2,0-0.2-0.1-0.4-0.1c-0.1,0-0.1,0-0.2,0
		c-2.5-0.2-3.2-2.5-3.1-4.7c-0.2-1.7,0.6-3.5,1.9-4.7c0.7-0.7,1.7-1.1,2.5-1c-0.3-0.2-0.6-0.3-0.8-0.5c-1.3-0.6-2.2-1.7-2.7-3.1
		c-1.3-1.4-2.1-3.4-2.8-4.7c-0.6-1.1-1-2.2-1.5-3.4c-0.6-0.9-1.2-1.9-1.7-2.8c-2.1-3.6-6.5-9.4-5.8-14.1c-0.1,0-0.2,0.1-0.3,0.1
		h-0.1c-0.9,0.2-1.7-0.2-2.1-1.3c-0.4-1.2-0.1-2.4,0.7-3.3c0.1-0.2,0.2-0.2,0.4-0.3c0.3-0.4,0.7-0.8,1.2-0.9
		c0.9-0.2,1.8,0.1,2.2,0.9c0.1,0.1,0.1,0.2,0.1,0.2c0.6,0.6,0.8,1.3,0.8,2c0.1,0.3,0.1,0.6,0.1,0.9c0.2-0.4,0.2-0.9,0.2-1.3
		c0-0.3-0.1-0.7-0.2-1c0.3-0.1,0.6-0.2,0.9-0.4c-0.9-0.2-1.3-0.9-1.4-1.9c-0.2-2.1,1.5-4,2.7-5.5c2.2-2.7,4.9-5,7.3-7.4
		c2.9-3,5.8-6,9.1-8.6c1.5-1.3,3.3-3.1,5.3-3.5c1.9-0.4,3.7,1.5,3.8,3.2c0.5-0.6,0.9-1.2,0.9-1.7C86.9,147.1,86.2,145.7,85,144.7z
		 M59.4,214.6c-0.1,0.1-0.2,0.1-0.2,0.1c-0.2,0.2-0.4,0.2-0.6,0.2c-0.2,0.1-0.4,0.1-0.6,0.1c-0.2,0-0.5,0.1-0.6,0.1
		c-0.4,0-0.9-0.2-1.2-0.5c-0.1,0-0.1-0.1-0.2-0.2c-0.2-0.2-0.2-0.5-0.1-0.9c0.3-0.6,1.2-0.6,1.7-0.6c0.3,0,0.8,0,1.2,0.2
		c0.3,0.1,0.6,0.2,0.8,0.5C60.1,214,59.8,214.4,59.4,214.6z M61.6,219.1c-0.2,1.2-1.4,1.7-2.5,1.8c-0.2,0.1-0.4,0.1-0.6,0.2
		c-0.9,0.2-1.9-0.3-1.3-1.3c0.4-0.9,1.7-1.4,2.6-1.7C60.4,218,61.8,218,61.6,219.1z"/>
</g>
<g id="glava_1_">
	<g id="glava_2_">
		<path id="glava_6_" class="st8" d="M69.2,15.3c2.3-1,28.6-9.5,52.6-8.5c25.2,0.9,50.9,11.4,61.8,16.4c4,1.8,7.7,4.2,11,7
			c7,6,16.9,16.2,17.9,29c1.3,17-2.1,26.1-3.8,29.7c-4.1,8.5-24,30.8-40.8,36c-15.8,4.9-36.4,12.9-83.7,14.7
			c-47.3,1.7-66.9-30.2-66.9-30.2S-8.7,70.5,26.6,40C47.5,21.9,59.7,19.7,69.2,15.3z"/>
		<path class="st3" d="M121.8,6.8c-24-0.9-50.3,7.5-52.6,8.5c-9.5,4.3-21.6,6.6-42.4,24.6c-35.3,30.6-9.5,69.4-9.5,69.4
			s19.6,31.9,66.9,30.2c2.6-0.1,5.2-0.2,7.7-0.3c-8.1-1.4-16-3.7-23.5-7.3c-10.9-5.4-17.9-11.9-26.2-22.1c-0.2-0.2-2.6-3.4-2.8-3.6
			c-4.6-5.5-11.8-23.2-11.6-26.8c-0.2-1.7,0.1-5.7,0.1-5.9c1.3-22.5,22.3-39.7,40.3-49.5c11.4-6.2,23.2-10.7,35.9-13.1
			c4.3-0.9,8.7-1.5,13.1-2.1c2.7-0.6,5.5-1.2,8.1-1.7C124.1,6.9,122.9,6.8,121.8,6.8z"/>
	</g>
	<g id="nos_usta_2_">
		<path class="st3" d="M127.6,65.2c0.2-0.8,0.3-1.6,0.2-2.3c-0.2-0.8-0.8-1.5-1.5-1.5c-0.7-0.1-1.7,0.4-2.3,0.9
			c-1.6,1.5-3.2,3.7-3.8,5.9c-0.9-2.3-2.3-4.6-3.9-5.8c-1.9-1.3-4.2-0.7-4.6,1.7c-0.4,2.2,0.7,6,2.3,7.4c2.2,2.1,4.6,4,7,5.6
			C123.7,73.5,126.5,69.7,127.6,65.2z"/>
		<path class="st9" d="M126.4,64.9c0.2-0.7,0.3-1.5,0.1-2.2c-0.2-0.7-0.8-1.3-1.5-1.4c-0.7-0.1-1.7,0.3-2.3,0.8
			c-1.6,1.4-3.2,3.6-3.7,5.6c-0.9-2.1-2.3-4.3-4-5.4c-2-1.3-4.2-0.6-4.6,1.7c-0.3,2.1,0.8,5.6,2.4,7c2.2,1.9,4.7,3.6,7.1,5.2
			C122.6,72.7,125.2,69.1,126.4,64.9z"/>
		<path class="st3" d="M134.5,114.2c-0.3,0.2-0.6,0.5-0.8,0.7c0,0,0,0-0.1,0.1l0,0c0,0.2,0.1,0.4,0.2,0.6c0.7,0.7,1.6,1.7,1.6,2.1
			c0,0.7-5,2.2-4.7,2.1c0.2-0.2-1.3-2.4-1.9-3.4c-0.3,0.2-0.6,0.4-1,0.5l-0.1,0.1l0,0c0,0.3,0.1,0.6,0.1,0.9
			c0.5,0.9,0.9,1.9,0.6,2.2c-0.6,0.6-5.8,1.3-5.8,1.3c0-0.3-1-2.3-1.4-3.2c-0.1,0-0.2,0.1-0.3,0.1c-0.2,0.1-0.5,0.2-0.6,0.2
			c-0.1,0.1-0.2,0.2-0.2,0.3c0,0.5,0.1,0.9,0.2,1.4c0.3,1,0.6,2.1,0.2,2.4c-0.6,0.3-5.7,0.4-6,0.6c-0.3,0.2,0-4.2,0-4.2l-0.9-0.2
			c-0.2,0.1-0.3,0.2-0.6,0.2c-0.1,0.1-0.1,0.2-0.1,0.2c0,1-0.1,3.2-0.7,3.7c-0.8,0.6-6-0.1-6.2,0c-0.2,0.1,0-4.3,0-4.3s-0.2,0-0.6,0
			c-0.3,0.2-0.6,0.4-0.8,0.6c-0.2,0.6-0.4,1.2-0.6,1.8c-0.2,0.6-0.3,1.1-0.5,1.2c-0.5,0.2-4.7-1.1-4.9-1.4c-0.2-0.3,0.9-2.6,0.9-2.6
			l-1.1-0.8c-0.2,0.1-0.2,0.2-0.4,0.3c-1.5,1.6-2.4,4.3-2.1,6.7c0.1-0.1,0.2-0.1,0.2-0.2c0.2-0.1,0.5-0.1,0.6,0.1c0,0,0,0,0.1,0.1
			c0.2-0.7,0.6-1.8,0.6-1.7c0,0,0.1,0.1,0.2,0.1c0.1-0.2,0.3-0.3,0.6-0.2c1.7,0.7,3.6,0.9,5.4,1.2c0.2,0,0.2,0.2,0.3,0.2
			c0.2,0,0.4,0.2,0.4,0.4c-0.1,1,0,2.1,0.1,3.1l1.1,0.2c0,0-0.4-2.8,0.5-2.7c0.6,0.1,4.3,0.2,5.8,0.3V125c0-0.6,0.8-0.6,0.9-0.2
			c0.2,1.2,0.2,2.4,0.5,3.6h1c0.2,0-0.1-3.9,0.6-3.8c0.6,0.1,4.3-0.2,5.8-0.2c0-0.1,0.1-0.1,0.1-0.1c0-0.1-0.1-0.1-0.1-0.2
			c-0.3-0.6,0.6-1,0.8-0.5c0.3,0.6,0.6,1.3,0.8,1.9c0.2,0.4,0.3,0.9,0.5,1.3c0.2,0.2,0.5,0.3,0.6,0.5l1-0.3c0,0-1.5-3.5-0.6-3.3
			c0.9,0.2,6.1-1.9,6.3-2c0.2-0.1,0.9,0.9,1.6,1.7c0.5,0.3,0.9,0.6,1.2,1c0.2,0.2,0.5,0.2,0.7,0.4c0.5-0.2,0.9-0.6,0.9-0.6
			s-2.7-3.1-2.3-3.1c0.4,0,5.1-2.3,5.1-2.3c0.1-0.2,1.4,1,2.4,1.9c0.5,0.2,1,0.3,1.5,0.5c0.2-0.2,0.5-0.6,0.5-0.9
			C140.9,120,136.1,115.7,134.5,114.2z"/>
		<path class="st9" d="M98.4,116.9l1.7,1.3c0,0-1.1,2.3-0.9,2.6c0.2,0.3,4.4,1.6,4.9,1.4c0.5-0.2,0.8-2.7,0.8-3.2
			c0-0.5,1.7-0.4,1.7-0.4s-0.2,4.4,0,4.3c0.2-0.1,5.5,0.6,6.2,0c0.8-0.6,0.7-4.3,0.7-4.3l1.6,0.3c0,0-0.3,4.3,0,4.2
			c0.3-0.2,5.5-0.2,6-0.6c0.6-0.3-0.7-3.9-0.9-4.1c-0.2-0.2,1.4-0.7,1.4-0.7s1.7,3.2,1.7,3.6c0,0,5.2-0.8,5.8-1.3
			c0.6-0.6-1.3-3.5-1.3-3.5l1.5-0.6c0,0,2.4,3.6,2.1,3.8c-0.3,0.2,4.7-1.3,4.7-2.1c0-0.7-2.4-2.8-2.4-2.8l1-1.1c0,0,7,6.1,7,6.8
			c0.1,0.7-1.1,1.4-1.2,1.2s-3-3-3.1-2.8c0,0-4.7,2.3-5.1,2.3s2.3,3.1,2.3,3.1s-1.5,1.1-1.7,0.9c-0.2-0.2-2.5-3.5-2.8-3.4
			c-0.2,0.1-5.5,2.1-6.3,2s0.6,3.3,0.6,3.3l-1.7,0.6l-1.3-3.2c0,0-5.9,0.4-6.6,0.3c-0.7-0.1-0.4,3.8-0.6,3.8c-0.2,0-1.7,0-1.7,0
			v-3.2c0,0-5.7-0.2-6.5-0.3c-0.8-0.1-0.5,2.7-0.5,2.7l-1.8-0.2l0.2-3.3c0,0-6.3-1.2-6.3-1.4c0-0.2-0.9,2.3-0.9,2.3l-1.8-0.6
			L98.4,116.9z"/>
	</g>
	<g id="o4i_2_">
		<path class="st3" d="M78.2,34.9l-9.5,1.7c-0.7,0.1-1.2,0.7-1.2,1.4c0.2,7.3,0.6,43.6,3.2,54.4c0.5,1.8,2.1,3.6,2.6,3.6
			c3.2,0.2,10.8-1,13.7-1.5c0.6-0.1,1.1-0.7,1.1-1.4c-0.3-7.7-2.1-51.5-7.4-57.4C80.5,35.3,78.6,34.8,78.2,34.9z"/>
		<path class="st3" d="M157.3,90h-10.6c-1.1,0-3-1.9-3.1-2.9c-0.6-10.1-1.7-56.2,1.8-56.8c2.9-0.6,9.8-0.2,13.1,0c1,0.1,1.9,0.9,2,2
			c0.6,9.1,2.8,49.1-1.4,56.8C158.8,89.7,158.1,90,157.3,90z"/>
		<path class="st9" d="M156.4,87.3L143.7,87c0,0-4-56.1-0.1-56.9c3.9-0.7,14.9,0.1,14.9,0.1S162.4,83.5,156.4,87.3z"/>
		<path class="st9" d="M78.2,34.9l-12.6,1.6c0,0,1.9,56.2,5.8,56.6c4,0.3,14.9-1.7,14.9-1.7S84.5,38.1,78.2,34.9z"/>
	</g>
</g>
<g id="legs_2_">
	<g id="right_leg_2_">
		<ellipse class="st2" cx="87.6" cy="252.1" rx="4.7" ry="4.6"/>
		<ellipse class="st2" cx="86.3" cy="293.8" rx="6.7" ry="5"/>
		<path class="st3" d="M84,209.7C84,209.7,84,209.8,84,209.7c0.2,0.2,0.3,0.4,0.4,0.6c0,0.1,0.1,0.1,0.1,0.2
			c0.6,0.9,1.3,1.7,1.9,2.5c0.4,0.6,1.1,1.6,1.8,2.4c0.2-0.2,0.4-0.2,0.6-0.2c0,0,0.1,0,0.1,0.1c0.1-0.1,0.2-0.1,0.3,0
			c0.2,0,0.3,0,0.4,0.2c0,0.1,0.1,0.1,0.1,0.2c0.2,0.1,0.2,0.2,0.4,0.3c-0.4-2-0.9-3.9-2.3-5.4c-1.1-1.2-2.8-1.8-4.3-1.5
			C83.6,209.2,83.8,209.4,84,209.7z"/>
		<path class="st0" d="M87.1,249.6c1.6,0,3-1.3,3.7-2.7c0.7-1.4,0.9-3.1,0.9-4.7c0.6-8.4-0.1-16.8-1.6-25c-0.4-2.1-0.9-4.3-2.4-5.9
			c-1.5-1.6-4.3-2.2-5.8-0.7c-1.3,1.2-1.3,3.2-1.3,4.9c0.1,8.9,0.6,17.9,1.5,26.9c0.2,1.7,0.4,3.3,1.1,4.7
			C83.9,248.5,85.4,249.7,87.1,249.6z"/>
		<path class="st0" d="M91.7,291c1.4-1.2,1.5-3.2,1.4-5.1c-0.2-7.5-0.4-14.9-0.6-22.4c-0.1-2.1-0.2-4.3-1.2-6.1
			c-1-1.8-3.4-3.2-5.4-2.3c-2.1,0.9-2.8,3.6-2.8,5.8c-0.1,6.5,2.1,12.9,1.7,19.4c-0.1,1.8-0.4,3.6-0.3,5.5c0.1,1.8,0.7,3.7,2.1,4.9
			C88.1,291.7,90.3,292.1,91.7,291z"/>
		<path class="st1" d="M77.9,292.9l-7,4.2c-1,0.6-1.7,1.7-1.7,2.9l0,0c0,0.9,0.8,1.5,1.7,1.8c1.8,0.7,5.9,0.3,6.1,0.2
			c4.9-0.8,8.7-2.4,8.8-2.5c2.4-1.3-3.7-4.6-5.7-6.5C79.5,292.6,78.6,292.5,77.9,292.9z"/>
		<path class="st3" d="M91.7,290.9c0.1-0.1,0.2-0.2,0.2-0.2c-0.2-0.1-0.4-0.2-0.6-0.3c-0.2-0.2-0.4-0.3-0.6-0.5l0,0
			c0,0,0-0.1-0.1-0.1c-0.2-0.3-0.4-0.7-0.4-1.1c-0.1-0.2-0.2-0.6-0.2-0.8c-0.2-0.4-0.2-0.8-0.2-1.2l0,0c-0.2-2.1-0.2-4.1-0.2-6.2
			c-0.3-2.3-0.8-4.7-1.3-6.9c-0.8-3.2-1.9-6.6-1.7-10c0-0.2,0.1-0.6,0.1-0.8c-0.2-1.7-0.3-4,0.9-5c0.4-0.3,0.7-0.5,1.1-0.5
			c0.8-0.4,1.7-0.2,2.5,0.4c-0.1-0.2-0.2-0.2-0.2-0.4c-0.3-0.6-0.7-0.9-1.2-1.3c0.6-0.4,1.1-0.9,1.5-1.4c-0.1,0-0.2,0-0.2,0
			c-0.6,0.1-1.1,0-1.6-0.2c-1.5-0.6-2.2-2.3-1.2-3.6c0.7-0.9,1.7-1,2.7-0.6c0.2,0.1,0.5,0.2,0.7,0.4c0.1,0,0.1,0.1,0.2,0.1
			c-0.4-1-1.1-1.9-2.1-2.4c0.3-0.3,0.6-0.7,0.7-1.1c0.6-1.3,0.9-2.8,0.9-4.3c-0.3,0.3-0.7,0.6-1.3,0.7c-3.2,0.9-4.8-2.8-5.3-5.2
			c-0.1-0.4-0.2-0.9-0.2-1.3c-0.6-2.2-0.9-4.5-1.1-6c-0.4-2.9-0.9-7.4,0.2-10.9c0-1.3,0.1-3.2,0.7-4.5c0.1-0.2,0.2-0.5,0.2-0.7
			c0.1-0.2,0.3-0.5,0.6-0.5c0.3-0.3,0.7-0.6,1.1-0.6c1.2-0.2,2.3,0.5,3.1,1.6c-0.4-1.5-0.9-2.9-2-4c-1.5-1.6-4.3-2.2-5.8-0.7
			c-1.3,1.2-1.3,3.2-1.3,4.9c0.1,8.9,0.6,17.9,1.5,26.9c0.2,1.7,0.4,3.3,1.1,4.7c0.3,0.6,0.8,1.2,1.3,1.6c-0.9,0.9-1.6,2.1-1.6,3.4
			c0,1.5,0.8,2.8,1.9,3.7c-1.3,1.2-1.7,3.2-1.7,5.1c-0.1,6.5,2.1,12.9,1.7,19.4c-0.1,1.8-0.4,3.6-0.3,5.5c0.1,1.1,0.3,2.3,0.9,3.3
			c-2.8,0.3-5.1,1.9-5.6,4c-0.6-0.3-1.3-0.3-1.8,0l-7,4.2c-1,0.6-1.7,1.7-1.7,2.9c0,0.9,0.8,1.5,1.7,1.8c1.8,0.7,5.9,0.3,6.1,0.2
			c4.9-0.8,8.7-2.4,8.8-2.5c0.4-0.2,0.6-0.6,0.6-0.9l0,0c3.7,0,6.7-2.2,6.7-5C93,292.8,92.5,291.7,91.7,290.9z M84.6,297.3
			c-0.1,0.1-0.1,0.2-0.2,0.2c-0.1,0.3-0.3,0.6-0.8,1c-1.8,1.4-4.7,1.7-6.9,1.6c-2.4-0.2-2.8-2.1-1.1-3.7c1.6-1.4,4.7-2.7,7-1.9
			c0.2-2.8,3.6-3.6,5.8-2.4c0.2,0.1,0.2,0.2,0.3,0.4c0.4,0.2,0.7,0.6,0.9,0.9C90.8,295.8,86.9,298,84.6,297.3z"/>
	</g>
	<g id="left_leg_2_">
		<ellipse class="st2" cx="156.1" cy="250.9" rx="4.7" ry="4.6"/>
		<ellipse transform="matrix(0.9799 -0.1995 0.1995 0.9799 -54.7595 39.4025)" class="st2" cx="168.1" cy="291.4" rx="7.2" ry="5"/>
		<path class="st0" d="M148.9,206.6c-1.6,0.2-2.8,1.6-3.4,3.2c-0.6,1.6-0.6,3.3-0.5,5c0.3,8.8,1.8,17.5,4.2,26c0.6,2.2,1.3,4.5,3,6
			c1.7,1.5,4.4,1.9,5.8,0.2c1.1-1.3,1-3.4,0.8-5.2c-1-9.3-2.4-18.6-4.3-27.8c-0.3-1.7-0.7-3.4-1.6-4.8
			C152.2,207.4,150.6,206.3,148.9,206.6z"/>
		<path class="st0" d="M167.3,288.8c1.2-1.4,0.9-3.5,0.6-5.2c-1.4-7.3-2.9-14.7-4.3-22c-0.4-2.1-0.9-4.2-2.2-5.8
			c-1.3-1.7-3.9-2.5-5.7-1.4c-2,1.2-2.1,4-1.7,6.2c1,6.4,3.7,12.4,4.8,18.8c0.4,2,0.9,3.7,1.3,5.5s0.6,3.5,2.2,4.4
			C163.7,290.3,166.1,290.2,167.3,288.8z"/>
		<path class="st1" d="M176.1,288.2l8.1,1.7c1.2,0.2,2.1,1.1,2.5,2.2l0,0c0.3,0.9-0.2,1.7-0.9,2.3c-1.5,1.3-5.5,2.2-5.7,2.2
			c-4.9,0.9-9,0.6-9.2,0.5c-2.7-0.5,2.1-5.5,3.3-8C174.5,288.4,175.3,288,176.1,288.2z"/>
		<path class="st3" d="M186.6,292.1c-0.1-0.2-0.1-0.2-0.2-0.4c-2.4,2.1-7.2,2.3-10.1,1.9c-2.2-0.3-2.9-1.6-2.8-3.2
			c-1.2,1-2.6,1.9-3.9,1.3c-1.8-0.9-0.9-3.7-0.5-5.3c-0.4,0-0.8,0-1.1,0.1c0-0.2,0-0.6,0-0.8c-0.2,0.2-0.5,0.2-0.8,0.2h-0.1
			c-0.1,0-0.1,0-0.2,0c-4.6,1-6.2-8.5-6.8-11.2c-0.7-3-1.2-6-1.6-9c-0.7-2.8-2.7-10.1,1-11.1c-0.2-0.1-0.3-0.2-0.4-0.2
			c0.6-0.5,1-1.1,1.3-1.7l0,0c-0.6,0.6-1.5,0.8-2.4,0.4c-0.9-0.5-1.6-1.5-1.5-2.5c0.1-1,0.9-2,1.8-2.3c0.5-0.2,0.9-0.1,1.3,0.2
			c0.1,0,0.1,0,0.2,0c-0.5-0.6-1-1.1-1.7-1.5c1-1.3,0.9-3,0.8-4.7c-0.6,0.9-1.4,1.3-2.7,1.1c-2.3-0.4-3.2-3-4-4.9
			c-1.4-3.8-2.8-7.6-3.9-11.5c-0.9-3.9-1.8-7.8-2.6-11.8c-0.2-1.3-0.5-2.6-0.6-4c-0.2,1.2-0.2,2.4-0.2,3.7c0.3,8.8,1.8,17.5,4.2,26
			c0.6,2.2,1.3,4.5,3,6c0.2,0.2,0.6,0.5,0.9,0.6c-1.1,0.9-1.8,2.1-1.8,3.6c0,2.1,1.3,3.7,3.2,4.3c-1.1,1.4-1.2,3.6-0.9,5.4
			c1,6.4,3.7,12.4,4.8,18.8c0.4,2,0.9,3.7,1.3,5.5c0.5,1.8,0.6,3.5,2.2,4.4l0,0c-0.9,1.1-1.3,2.3-1.1,3.6c0.6,2.7,4.2,4.2,8.1,3.4
			c0.3-0.1,0.6-0.2,0.9-0.2c-0.1,0.6,0.2,0.9,0.8,1c0.2,0.1,4.3,0.4,9.2-0.5c0.2,0,4.2-0.9,5.7-2.2
			C186.4,293.8,186.9,293,186.6,292.1L186.6,292.1z"/>
	</g>
</g>
<g id="thumb_2_">
	<path id="under_my_thumb_2_" class="st1" d="M201.6,110.1c0.3,0.2,0.6,0.5,0.9,0.3c0.3-0.1,0.4-0.4,0.5-0.7
		c0.5-1.4,0.9-2.8,1.4-4.2c-2.2-2.2-4.4-4.4-6.7-6.7c-0.4-0.4-0.8-0.8-1.3-0.9c-0.8-0.2-1.6,0.6-1.7,1.5c-0.2,0.8,0.2,1.7,0.6,2.4
		C196.8,105.1,199,107.9,201.6,110.1z"/>
	<path class="st3" d="M197.3,102.3c-0.4-0.9-0.9-2.6,0-3.4l0,0v-0.1c0-0.2,0-0.2,0.1-0.3c-0.2-0.2-0.6-0.4-0.9-0.5
		c-0.8-0.2-1.6,0.6-1.7,1.5c-0.2,0.8,0.2,1.7,0.6,2.4c1.4,3.2,3.6,6,6.2,8.2c0.3,0.2,0.6,0.5,0.9,0.3c0.3-0.1,0.4-0.4,0.5-0.7
		c0.2-0.6,0.5-1.3,0.7-2C201.2,106.7,198.5,104.8,197.3,102.3z"/>
</g>
<path class="st10" d="M186.8,29.5c-6-4.6-13-7.7-20.4-9.1c-1.3-0.2-2.6,0.2-3.5,1.2l0,0c-0.9,1.1-1.2,2.6-0.6,4c0,0.1,0,0.1,0.1,0.2
	c0.2,0.6,0.6,1,1.1,1.3c0.1,0.1,0.2,0.1,0.2,0.2c2.1,1.6,4.3,3,6.4,4.5c5.3,3.9,9.1,10,12.2,15.7c3.8,6.9,6.4,14.4,7.9,22
	c0.6,3.2,1,6.5,1.3,9.7c0,0.5,0.2,0.9,0.3,1.3c0.2,0.3,0.2,0.6,0.3,1c0.3,3.4,4.2,2.2,6.6,0.6c0.5-0.3,0.9-0.8,1.2-1.3
	c2.5-5.1,4-10.7,4.1-16.4C204.3,50.9,197.5,37.7,186.8,29.5z"/>
</svg>
